<?xml version="1.0" encoding="UTF-8" standalone="no"?>
<!DOCTYPE svg PUBLIC "-//W3C//DTD SVG 1.1//EN"
 "http://www.w3.org/Graphics/SVG/1.1/DTD/svg11.dtd">
<!-- Generated by graphviz version 2.43.0 (0)
 -->
<!-- Title: %3 Pages: 1 -->
<svg width="634pt" height="441pt"
 viewBox="0.00 0.00 633.74 440.74" xmlns="http://www.w3.org/2000/svg" xmlns:xlink="http://www.w3.org/1999/xlink">
<g id="graph0" class="graph" transform="scale(1 1) rotate(0) translate(4 436.74)">
<title>%3</title>
<polygon fill="white" stroke="transparent" points="-4,4 -4,-436.74 629.74,-436.74 629.74,4 -4,4"/>
<!-- OFF -->
<g id="node1" class="node">
<title>OFF</title>
<polygon fill="none" stroke="black" points="555.14,-432.74 466.14,-432.74 466.14,-394.74 555.14,-394.74 555.14,-432.74"/>
<text text-anchor="middle" x="510.64" y="-417.54" font-family="Times,serif" font-size="14.00">OFF</text>
<text text-anchor="middle" x="510.64" y="-402.54" font-family="Times,serif" font-size="14.00">(No Pi 5V)</text>
</g>
<!-- BOOTING -->
<g id="node2" class="node">
<title>BOOTING</title>
<polygon fill="none" stroke="black" points="494.64,-343.74 402.64,-343.74 402.64,-305.74 494.64,-305.74 494.64,-343.74"/>
<text text-anchor="middle" x="448.64" y="-328.54" font-family="Times,serif" font-size="14.00">BOOTING</text>
<text text-anchor="middle" x="448.64" y="-313.54" font-family="Times,serif" font-size="14.00">(Serial up)</text>
</g>
<!-- OFF&#45;&gt;BOOTING -->
<g id="edge1" class="edge">
<title>OFF&#45;&gt;BOOTING</title>
<path fill="none" stroke="black" d="M473.34,-394.65C466.48,-389.73 460.1,-383.78 455.64,-376.74 451.44,-370.09 449.3,-361.99 448.3,-354.22"/>
<polygon fill="black" stroke="black" points="451.77,-353.71 447.56,-343.99 444.79,-354.22 451.77,-353.71"/>
<text text-anchor="middle" x="508.14" y="-365.54" font-family="Times,serif" font-size="14.00">Pi 5V detected</text>
</g>
<!-- OVERRIDE -->
<g id="node8" class="node">
<title>OVERRIDE</title>
<ellipse fill="none" stroke="black" stroke-dasharray="5,2" cx="536.64" cy="-115.87" rx="89.19" ry="26.74"/>
<text text-anchor="middle" x="536.64" y="-119.67" font-family="Times,serif" font-size="14.00">OVERRIDE</text>
<text text-anchor="middle" x="536.64" y="-104.67" font-family="Times,serif" font-size="14.00">(User override)</text>
</g>
<!-- OFF&#45;&gt;OVERRIDE -->
<g id="edge11" class="edge">
<title>OFF&#45;&gt;OVERRIDE</title>
<path fill="none" stroke="black" stroke-dasharray="5,2" d="M545.05,-394.71C551.34,-389.77 557.04,-383.79 560.64,-376.74 564.09,-370.01 598.82,-368.4 554.64,-160.74 554.05,-157.95 553.29,-155.11 552.41,-152.28"/>
<polygon fill="black" stroke="black" points="555.7,-151.1 549.08,-142.83 549.1,-153.42 555.7,-151.1"/>
</g>
<!-- RUNNING -->
<g id="node3" class="node">
<title>RUNNING</title>
<polygon fill="none" stroke="black" points="508.64,-254.74 382.64,-254.74 382.64,-216.74 508.64,-216.74 508.64,-254.74"/>
<text text-anchor="middle" x="445.64" y="-239.54" font-family="Times,serif" font-size="14.00">RUNNING</text>
<text text-anchor="middle" x="445.64" y="-224.54" font-family="Times,serif" font-size="14.00">(Heartbeat OK)</text>
</g>
<!-- BOOTING&#45;&gt;RUNNING -->
<g id="edge2" class="edge">
<title>BOOTING&#45;&gt;RUNNING</title>
<path fill="none" stroke="black" d="M448.02,-305.71C447.62,-293.93 447.08,-278.3 446.62,-264.9"/>
<polygon fill="black" stroke="black" points="450.11,-264.62 446.27,-254.74 443.11,-264.86 450.11,-264.62"/>
<text text-anchor="middle" x="476.64" y="-276.54" font-family="Times,serif" font-size="14.00">boot log</text>
</g>
<!-- CRASHED -->
<g id="node6" class="node">
<title>CRASHED</title>
<polygon fill="none" stroke="black" points="135.64,-198.74 3.64,-198.74 3.64,-160.74 135.64,-160.74 135.64,-198.74"/>
<text text-anchor="middle" x="69.64" y="-183.54" font-family="Times,serif" font-size="14.00">CRASHED</text>
<text text-anchor="middle" x="69.64" y="-168.54" font-family="Times,serif" font-size="14.00">(Panic detected)</text>
</g>
<!-- BOOTING&#45;&gt;CRASHED -->
<g id="edge3" class="edge">
<title>BOOTING&#45;&gt;CRASHED</title>
<path fill="none" stroke="black" d="M402.55,-306.35C333.36,-280.24 202.73,-230.95 127.32,-202.5"/>
<polygon fill="black" stroke="black" points="128.09,-199.05 117.5,-198.8 125.62,-205.6 128.09,-199.05"/>
<text text-anchor="middle" x="386.14" y="-276.54" font-family="Times,serif" font-size="14.00">panic log</text>
</g>
<!-- SHUTTING_DOWN -->
<g id="node4" class="node">
<title>SHUTTING_DOWN</title>
<polygon fill="none" stroke="black" points="271.14,-134.87 120.14,-134.87 120.14,-96.87 271.14,-96.87 271.14,-134.87"/>
<text text-anchor="middle" x="195.64" y="-119.67" font-family="Times,serif" font-size="14.00">SHUTTING DOWN</text>
<text text-anchor="middle" x="195.64" y="-104.67" font-family="Times,serif" font-size="14.00">(Shutdown log)</text>
</g>
<!-- RUNNING&#45;&gt;SHUTTING_DOWN -->
<g id="edge5" class="edge">
<title>RUNNING&#45;&gt;SHUTTING_DOWN</title>
<path fill="none" stroke="black" d="M382.53,-229.52C331.23,-224.21 263.87,-214.5 241.64,-198.74 223.24,-185.69 211.29,-162.83 204.2,-144.57"/>
<polygon fill="black" stroke="black" points="207.43,-143.22 200.75,-135 200.85,-145.59 207.43,-143.22"/>
<text text-anchor="middle" x="290.14" y="-176.04" font-family="Times,serif" font-size="14.00">shutdown log</text>
</g>
<!-- UNRESPONSIVE -->
<g id="node7" class="node">
<title>UNRESPONSIVE</title>
<polygon fill="none" stroke="black" points="429.64,-134.87 289.64,-134.87 289.64,-96.87 429.64,-96.87 429.64,-134.87"/>
<text text-anchor="middle" x="359.64" y="-119.67" font-family="Times,serif" font-size="14.00">UNRESPONSIVE</text>
<text text-anchor="middle" x="359.64" y="-104.67" font-family="Times,serif" font-size="14.00">(HB timeout)</text>
</g>
<!-- RUNNING&#45;&gt;UNRESPONSIVE -->
<g id="edge4" class="edge">
<title>RUNNING&#45;&gt;UNRESPONSIVE</title>
<path fill="none" stroke="black" d="M382.42,-223.28C369.55,-217.95 357.55,-210.15 349.64,-198.74 338.8,-183.1 341.92,-161.63 347.41,-144.6"/>
<polygon fill="black" stroke="black" points="350.72,-145.76 350.84,-135.16 344.14,-143.37 350.72,-145.76"/>
<text text-anchor="middle" x="414.64" y="-176.04" font-family="Times,serif" font-size="14.00">heartbeat timeout</text>
</g>
<!-- RUNNING&#45;&gt;OVERRIDE -->
<g id="edge10" class="edge">
<title>RUNNING&#45;&gt;OVERRIDE</title>
<path fill="none" stroke="black" stroke-dasharray="5,2" d="M455.23,-216.53C460.11,-210.98 465.76,-204.74 470.64,-198.74 483.18,-183.32 495.93,-165.27 506.99,-150.05"/>
<polygon fill="black" stroke="black" points="509.86,-152.06 512.96,-141.92 504.22,-147.92 509.86,-152.06"/>
</g>
<!-- HALTED -->
<g id="node5" class="node">
<title>HALTED</title>
<polygon fill="none" stroke="black" points="259.64,-38 131.64,-38 131.64,0 259.64,0 259.64,-38"/>
<text text-anchor="middle" x="195.64" y="-22.8" font-family="Times,serif" font-size="14.00">HALTED</text>
<text text-anchor="middle" x="195.64" y="-7.8" font-family="Times,serif" font-size="14.00">(GPIO26 HIGH)</text>
</g>
<!-- SHUTTING_DOWN&#45;&gt;HALTED -->
<g id="edge7" class="edge">
<title>SHUTTING_DOWN&#45;&gt;HALTED</title>
<path fill="none" stroke="black" d="M195.64,-96.58C195.64,-82.93 195.64,-64.02 195.64,-48.41"/>
<polygon fill="black" stroke="black" points="199.14,-48.24 195.64,-38.24 192.14,-48.24 199.14,-48.24"/>
<text text-anchor="middle" x="246.14" y="-59.8" font-family="Times,serif" font-size="14.00">GPIO26 HIGH</text>
</g>
<!-- CRASHED&#45;&gt;HALTED -->
<g id="edge8" class="edge">
<title>CRASHED&#45;&gt;HALTED</title>
<path fill="none" stroke="black" d="M26.68,-160.64C19.86,-155.84 13.71,-149.93 9.64,-142.74 -2.12,-121.96 -3.99,-108.61 9.64,-89 34.76,-52.9 81.09,-35.65 121.22,-27.42"/>
<polygon fill="black" stroke="black" points="122.1,-30.81 131.28,-25.52 120.8,-23.94 122.1,-30.81"/>
<text text-anchor="middle" x="60.14" y="-112.17" font-family="Times,serif" font-size="14.00">GPIO26 HIGH</text>
</g>
<!-- UNRESPONSIVE&#45;&gt;HALTED -->
<g id="edge6" class="edge">
<title>UNRESPONSIVE&#45;&gt;HALTED</title>
<path fill="none" stroke="black" d="M345.34,-96.71C334.33,-83.79 318.08,-66.87 300.64,-56 290.97,-49.97 280.16,-44.8 269.25,-40.42"/>
<polygon fill="black" stroke="black" points="270.26,-37.06 259.67,-36.78 267.77,-43.61 270.26,-37.06"/>
<text text-anchor="middle" x="370.14" y="-59.8" font-family="Times,serif" font-size="14.00">GPIO26 HIGH</text>
</g>
<!-- OVERRIDE&#45;&gt;BOOTING -->
<g id="edge9" class="edge">
<title>OVERRIDE&#45;&gt;BOOTING</title>
<path fill="none" stroke="black" stroke-dasharray="5,2" d="M539.52,-142.83C542.09,-178.96 541.47,-244.79 509.64,-287.74 506.35,-292.19 502.33,-296.18 497.94,-299.75"/>
<polygon fill="black" stroke="black" points="495.76,-297 489.71,-305.71 499.87,-302.67 495.76,-297"/>
</g>
<!-- OVERRIDE&#45;&gt;RUNNING -->
<g id="edge12" class="edge">
<title>OVERRIDE&#45;&gt;RUNNING</title>
<path fill="none" stroke="black" stroke-dasharray="5,2" d="M527.83,-142.66C518.21,-159.14 503.28,-180.73 488.64,-198.74 485.82,-202.21 482.74,-205.76 479.55,-209.21"/>
<polygon fill="black" stroke="black" points="476.9,-206.92 472.45,-216.53 481.92,-211.79 476.9,-206.92"/>
</g>
</g>
</svg>
